/* XPM */
static const char * icon_xpm[] = {
"32 32 405 2",
"  	c None",
". 	c #8C8C8C",
"+ 	c #8A8A8A",
"@ 	c #B5B5B5",
"# 	c #888888",
"$ 	c #626262",
"% 	c #6E6E6E",
"& 	c #5B5B5B",
"* 	c #4A4A4A",
"= 	c #5A5A5A",
"- 	c #414141",
"; 	c #5D5D5D",
"> 	c #585858",
", 	c #474747",
"' 	c #404040",
") 	c #454545",
"! 	c #363636",
"~ 	c #282828",
"{ 	c #1D1D1D",
"] 	c #9A9A9A",
"^ 	c #8D8D8D",
"/ 	c #636363",
"( 	c #757575",
"_ 	c #878787",
": 	c #959595",
"< 	c #828282",
"[ 	c #6B6B6B",
"} 	c #5E5E5E",
"| 	c #5F5F5F",
"1 	c #565656",
"2 	c #4C4C4C",
"3 	c #424242",
"4 	c #323232",
"5 	c #222222",
"6 	c #1A1A1A",
"7 	c #161616",
"8 	c #181818",
"9 	c #838383",
"0 	c #7D7D7D",
"a 	c #5D5C5C",
"b 	c #5C5655",
"c 	c #555452",
"d 	c #4E514D",
"e 	c #484E4A",
"f 	c #4B4B4B",
"g 	c #696969",
"h 	c #6F6F6F",
"i 	c #666666",
"j 	c #5C5C5C",
"k 	c #555555",
"l 	c #242424",
"m 	c #1F1F1F",
"n 	c #141414",
"o 	c #1B1B1B",
"p 	c #444444",
"q 	c #616161",
"r 	c #606060",
"s 	c #949494",
"t 	c #737373",
"u 	c #696868",
"v 	c #7B7575",
"w 	c #757372",
"x 	c #848784",
"y 	c #818783",
"z 	c #ADADAD",
"A 	c #969696",
"B 	c #464646",
"C 	c #2B2B2B",
"D 	c #131313",
"E 	c #2D2D2D",
"F 	c #494949",
"G 	c #7E7E7E",
"H 	c #7C7C7C",
"I 	c #717171",
"J 	c #6E6D6E",
"K 	c #4F4C4D",
"L 	c #585758",
"M 	c #7E807F",
"N 	c #8A8C8B",
"O 	c #C2C2C2",
"P 	c #B6B6B6",
"Q 	c #AEAEAE",
"R 	c #939393",
"S 	c #6C6C6C",
"T 	c #3D3D3D",
"U 	c #262626",
"V 	c #383838",
"W 	c #2E2E2E",
"X 	c #707070",
"Y 	c #616162",
"Z 	c #222224",
"` 	c #3D3D3F",
" .	c #AFAFB1",
"..	c #6D6C6F",
"+.	c #121212",
"@.	c #232323",
"#.	c #343434",
"$.	c #202020",
"%.	c #2F2F2F",
"&.	c #777777",
"*.	c #393939",
"=.	c #434343",
"-.	c #313131",
";.	c #272727",
">.	c #6C6D6D",
",.	c #656766",
"'.	c #6B6D6B",
").	c #636361",
"!.	c #747573",
"~.	c #707270",
"{.	c #2B2D2B",
"].	c #1A191C",
"^.	c #29282B",
"/.	c #666568",
"(.	c #676668",
"_.	c #1A1919",
":.	c #111010",
"<.	c #0B0A0A",
"[.	c #0A0909",
"}.	c #080808",
"|.	c #060606",
"1.	c #070707",
"2.	c #191919",
"3.	c #525252",
"4.	c #6D6D6D",
"5.	c #929292",
"6.	c #9D9D9D",
"7.	c #2A2A2A",
"8.	c #353535",
"9.	c #5B5C5E",
"0.	c #837F83",
"a.	c #60595D",
"b.	c #5A5E5C",
"c.	c #636362",
"d.	c #3D3838",
"e.	c #221A1C",
"f.	c #1D1719",
"g.	c #2A2728",
"h.	c #3A393A",
"i.	c #565556",
"j.	c #3B393A",
"k.	c #373536",
"l.	c #2E2C2D",
"m.	c #222121",
"n.	c #0E0E0E",
"o.	c #0B0B0B",
"p.	c #515151",
"q.	c #3C3C3C",
"r.	c #2C2C2C",
"s.	c #747474",
"t.	c #575757",
"u.	c #626162",
"v.	c #908F93",
"w.	c #737378",
"x.	c #41353B",
"y.	c #332F32",
"z.	c #252C2C",
"A.	c #182321",
"B.	c #1A1516",
"C.	c #201D1E",
"D.	c #343334",
"E.	c #494846",
"F.	c #3C3B39",
"G.	c #3D3C3A",
"H.	c #2D2C2A",
"I.	c #212121",
"J.	c #171717",
"K.	c #333333",
"L.	c #4E4E4E",
"M.	c #6C5D5F",
"N.	c #645B58",
"O.	c #4C5048",
"P.	c #2D3631",
"Q.	c #363533",
"R.	c #2C1D20",
"S.	c #261217",
"T.	c #161012",
"U.	c #211D1E",
"V.	c #3D3C3D",
"W.	c #4E4E4D",
"X.	c #575652",
"Y.	c #4F4E4A",
"Z.	c #3F3E3A",
"`.	c #363532",
" +	c #252525",
".+	c #8D6F73",
"++	c #80494C",
"@+	c #7A3D3D",
"#+	c #5E2832",
"$+	c #40181D",
"%+	c #240C0D",
"&+	c #130707",
"*+	c #2A2526",
"=+	c #555253",
"-+	c #5F5E5E",
";+	c #5F5F5E",
">+	c #555450",
",+	c #54534E",
"'+	c #5B5A56",
")+	c #454541",
"!+	c #292929",
"~+	c #151515",
"{+	c #303030",
"]+	c #737371",
"^+	c #564344",
"/+	c #583237",
"(+	c #2D1E22",
"_+	c #110A0B",
":+	c #242222",
"<+	c #4D4E4D",
"[+	c #565655",
"}+	c #4C4C4B",
"|+	c #555554",
"1+	c #1C1C1C",
"2+	c #1E1E1E",
"3+	c #68746F",
"4+	c #626863",
"5+	c #595251",
"6+	c #363233",
"7+	c #3D3B3C",
"8+	c #5C5D5C",
"9+	c #535353",
"0+	c #3F3F3F",
"a+	c #3A3A3A",
"b+	c #6D6C6D",
"c+	c #565557",
"d+	c #211F23",
"e+	c #0E1110",
"f+	c #0B0C0C",
"g+	c #0C0D0C",
"h+	c #0F0F0F",
"i+	c #3E3E3E",
"j+	c #616263",
"k+	c #16161B",
"l+	c #080A10",
"m+	c #0D1513",
"n+	c #222625",
"o+	c #2E2F2E",
"p+	c #393738",
"q+	c #3B3B3B",
"r+	c #262625",
"s+	c #484848",
"t+	c #373737",
"u+	c #111111",
"v+	c #313332",
"w+	c #090D0E",
"x+	c #161B1E",
"y+	c #262A2E",
"z+	c #212321",
"A+	c #34352F",
"B+	c #3B3933",
"C+	c #413F34",
"D+	c #49473B",
"E+	c #35342D",
"F+	c #1F1E1E",
"G+	c #2A2C2C",
"H+	c #353635",
"I+	c #353436",
"J+	c #0B0D0B",
"K+	c #161A1A",
"L+	c #2D3234",
"M+	c #24262A",
"N+	c #32342F",
"O+	c #3C3C34",
"P+	c #3C3A34",
"Q+	c #49453D",
"R+	c #565344",
"S+	c #585445",
"T+	c #3B382F",
"U+	c #21211E",
"V+	c #242323",
"W+	c #38383A",
"X+	c #323233",
"Y+	c #0C0C0C",
"Z+	c #101010",
"`+	c #2F2F2C",
" @	c #0F100F",
".@	c #323636",
"+@	c #3B4142",
"@@	c #303332",
"#@	c #55574E",
"$@	c #42433A",
"%@	c #3C3935",
"&@	c #43403A",
"*@	c #54503F",
"=@	c #706A53",
"-@	c #68604D",
";@	c #302B21",
">@	c #221E1E",
",@	c #222125",
"'@	c #333434",
")@	c #0D0D0D",
"!@	c #363733",
"~@	c #191A18",
"{@	c #555959",
"]@	c #4C5252",
"^@	c #464A43",
"/@	c #7C7F73",
"(@	c #4D4E44",
"_@	c #3D3B37",
":@	c #464537",
"<@	c #5D5842",
"[@	c #796F56",
"}@	c #90836D",
"|@	c #685F50",
"1@	c #1F181B",
"2@	c #17161B",
"3@	c #2D2E2C",
"4@	c #252523",
"5@	c #1C1D1C",
"6@	c #717373",
"7@	c #626565",
"8@	c #5D615B",
"9@	c #A39E90",
"0@	c #655E53",
"a@	c #423E38",
"b@	c #5A5845",
"c@	c #746F54",
"d@	c #877C61",
"e@	c #A4947E",
"f@	c #8E816F",
"g@	c #2F2921",
"h@	c #1D1C20",
"i@	c #222320",
"j@	c #767676",
"k@	c #6F7070",
"l@	c #5A5E5B",
"m@	c #BBB1A5",
"n@	c #7D7064",
"o@	c #453F39",
"p@	c #5A5548",
"q@	c #605843",
"r@	c #7F735B",
"s@	c #A49480",
"t@	c #9E8F7B",
"u@	c #413C2B",
"v@	c #1E1D1E",
"w@	c #1F1F1C",
"x@	c #4F524F",
"y@	c #9B968E",
"z@	c #7D736B",
"A@	c #48413C",
"B@	c #3B3832",
"C@	c #4E4739",
"D@	c #685D4D",
"E@	c #97877B",
"F@	c #A39483",
"G@	c #4C4738",
"H@	c #19181C",
"I@	c #1B1A19",
"J@	c #0A0A0A",
"K@	c #4A4D4A",
"L@	c #5A5955",
"M@	c #6B6660",
"N@	c #463F3A",
"O@	c #393734",
"P@	c #474336",
"Q@	c #615949",
"R@	c #85776D",
"S@	c #938375",
"T@	c #575244",
"U@	c #18171C",
"V@	c #161517",
"W@	c #444743",
"X@	c #353634",
"Y@	c #464441",
"Z@	c #3F3A35",
"`@	c #33332D",
" #	c #3F3C2F",
".#	c #575040",
"+#	c #6E6256",
"@#	c #827366",
"##	c #504A40",
"$#	c #16151A",
"%#	c #141315",
"&#	c #2B2B2A",
"*#	c #302F2B",
"=#	c #3C3933",
"-#	c #4B453D",
";#	c #60584F",
">#	c #7E736A",
",#	c #37302B",
"'#	c #151617",
")#	c #292926",
"!#	c #34322D",
"~#	c #47433D",
"{#	c #5F5951",
"]#	c #57504A",
"^#	c #25201D",
"/#	c #0F0E0E",
"(#	c #38393A",
"_#	c #1F211F",
":#	c #272724",
"<#	c #3C3A35",
"[#	c #4D4A45",
"}#	c #33312F",
"|#	c #1D1C1B",
"1#	c #3F3F3E",
"2#	c #2D3030",
"3#	c #3C3D3C",
"4#	c #444340",
"5#	c #373733",
"6#	c #353638",
"7#	c #3C3C3D",
"8#	c #4D4D4D",
"                                    . +   @ #                   ",
"                                $ % & * & = -                   ",
"                              ; ; > , ' ) ! ~ { -               ",
"      ] ^   / ( _ : <       [ } | 1 2 3 4 5 6 7 8               ",
"      9 0 ; = a b c d e f g h i j k f ! l m 6 n o p q r         ",
"      s t 0 s u v w x y < z A t $ & B C 5 m o D E i h 2 F       ",
"    > t G H I J K L M N H O P Q R S T C U l C V W - * G 2 *     ",
"    k S X $ [ Y Z `  ...+.+.@.V - #.$.U 4 %.#.t &.r *.=.-.;.    ",
"  >.,.'.).!.~.{.].^./.(._.:.<.[.}.|.1.}.2.4 3.4.5.6.F B 7.~ 8.  ",
"  9.0.a.b.c.d.e.f.g.h.i.j.k.l.m.8 n.o.o.o.E 2 ; 3 p.1 q.r.s.t.  ",
"  u.v.w.x.y.z.A.B.C.D.3.E.F.G.H.I.6 J.2.J.I.p., K.1 L.4 7., #.  ",
"  M.N.O.P.Q.R.S.T.U.V.W.X.Y.Z.`.r.l 2.n 8 +.7.-. +K.4 V @.5 +.  ",
"  .+++@+#+$+%+&+*+=+-+;+>+,+'+)+4 W !+ +6 ~+ +C $.l ;.{+;.{ o W ",
"  ]+^+/+(+_+:+<+; t.3.[+; f }+|+- 4 E r.@.1+U !+1+{ 5 K.;.2+@.j ",
"  3+4+5+6+7+f 8+= r j 9+, B L.0+#.~ W -.%.7.a+@.o o m r.r.1+5 3.",
"  b+c+d+e+f+g+h+{ K.0+, L.3 i+*.;.8 E C *.W ;.l $.~+1+%.W 1+@.2 ",
"  j+k+l+m+n+o+p+q+r+5 {+*.s+*.V t+~+U ;.C r.m $.1+u+D $.W 1+m =.",
"  v+w+x+y+z+A+B+C+D+E+F+G+H+V.I+V m D ;. +$.~+D  +D { U %.1+$.%.",
"  J+K+L+M+N+O+P+Q+R+S+T+U+V+W+X+W I.Y+5 $.m 5 }.u+Z+$.!+W o m s+",
"`+ @.@+@@@#@$@%@&@*@=@-@;@>@,@'@r.@.)@2.2+5 m )@)@7 m 7.W { 5 K.",
"!@~@{@]@^@/@(@_@:@<@[@}@|@1@2@3@7.E D n o 1+m n 4 7 { r.E 1+$.B ",
"4@5@6@7@8@9@0@a@b@c@d@e@f@g@h@i@~  +u+h+2.~+$.6 F Z+6 r.E 6 $.q ",
";.$.j@k@l@m@n@o@p@q@r@s@t@u@v@w@l 5 Y+)@7 2+o ~+1+Z+J.7.r.2.$.  ",
"q+{ r I x@y@z@A@B@C@D@E@F@G@H@I@5 5 J@n.Z+Y+o n.D 8 o @.C 6 l   ",
"; o p % K@L@M@N@O@P@Q@R@S@T@U@V@$.n 1.Z+)@)@6 2+6 6 I.5 !+n C   ",
"  7 %.= W@X@Y@Z@`@ #.#+#@###$#%#2+h+D J.D u+D 2+6 o I.;.1+)@q.  ",
"  W !+#.3 W ;.&#*#=#-#;#>#,#+.'#;.F ) *.T I.5 { 6 o 5 $.W =.    ",
"  & $.V W W I.$.)#!#~#{#]#^#/#(#                                ",
"    * 5 i+~ l 5 _#:#<#[#}#|#1#                                  ",
"      , ;.0+a+E 2#3#4#5#6#7#                                    ",
"        9+K.-.*.i+! t+B 8#                                      ",
"            1 3.q.8#1                                           "};
